<svg width="19.518028" height="25.000000" viewBox="0 0 19.518 25" fill="none" xmlns="http://www.w3.org/2000/svg" xmlns:xlink="http://www.w3.org/1999/xlink">
	<path d="M16.6597 16.657L16.6597 25L9.53973 22.4017L2.85832 25L2.85832 16.657C0.949314 14.7533 -0.00345612 12.4535 7.62939e-06 9.75745C7.62939e-06 4.36865 4.36918 0 9.75901 0C15.1488 0 19.518 4.36865 19.518 9.75745C19.5215 12.4535 18.5687 14.7533 16.6597 16.657ZM9.75901 1.41455C5.1507 1.41455 1.41473 5.14978 1.41473 9.75745C1.41473 14.3652 5.1507 18.1003 9.75901 18.1003C14.3673 18.1003 18.1033 14.3652 18.1033 9.75745C18.1033 5.14978 14.3673 1.41455 9.75901 1.41455ZM14.2617 12.6361C14.2417 12.7961 14.1511 12.8782 13.9899 12.8822L5.36892 12.8822C5.20773 12.8782 5.11716 12.7961 5.0972 12.6361L4.33979 5.85913C4.31913 5.67285 4.43115 5.52075 4.59032 5.52075L4.60356 5.52075L6.98756 8.34998L9.37157 5.52075L9.37898 5.52075C9.40751 5.47766 9.44759 5.45618 9.49921 5.45618L9.96108 5.45618C10.0127 5.45618 10.0528 5.47766 10.0813 5.52075L10.0877 5.52075L12.4717 8.34998L14.8448 5.53357C14.9619 5.57349 15.0363 5.70435 15.0191 5.85913L14.2617 12.6361ZM5.6303 13.7203L13.83 13.7203C14.0225 13.7203 14.1188 13.8165 14.1189 14.009L14.1189 14.7595C14.1188 14.952 14.0225 15.0482 13.83 15.0482L5.6303 15.0482C5.43768 15.0483 5.34137 14.9521 5.34137 14.7595L5.34137 14.009C5.34138 13.8164 5.43769 13.7202 5.6303 13.7203Z" fill="#1B5FC6"/>
	<defs/>
</svg>
